<?xml version="1.0" standalone="no"?>
<!DOCTYPE svg PUBLIC "-//W3C//DTD SVG 20010904//EN"
 "http://www.w3.org/TR/2001/REC-SVG-20010904/DTD/svg10.dtd">
<svg version="1.0" xmlns="http://www.w3.org/2000/svg"
 width="1280.000000pt" height="1280.000000pt" viewBox="0 0 1280.000000 1280.000000"
 preserveAspectRatio="xMidYMid meet">

<g transform="translate(0.000000,1280.000000) scale(0.100000,-0.100000)"
fill="#000000" stroke="none">
<path d="M5124 9760 c-11 -4 -35 -27 -53 -51 -172 -231 -181 -245 -179 -269 2
-19 9 -25 28 -25 20 0 43 25 126 135 80 106 106 135 125 135 18 0 45 -29 126
-137 104 -139 125 -156 153 -123 7 8 10 21 6 30 -11 29 -216 294 -235 305 -23
12 -68 12 -97 0z"/>
<path d="M2765 9748 c-66 -36 -114 -131 -99 -195 11 -48 53 -112 84 -128 45
-23 428 -22 477 2 120 56 114 255 -9 319 -34 18 -421 20 -453 2z m454 -97 c32
-45 28 -105 -8 -142 l-29 -29 -186 0 c-114 0 -194 4 -209 11 -52 24 -65 122
-22 164 24 25 25 25 229 25 l205 0 20 -29z"/>
<path d="M3453 9741 c-39 -24 -53 -49 -53 -93 0 -46 36 -87 85 -99 22 -5 138
-8 258 -8 228 2 254 -2 231 -39 -10 -15 -40 -18 -275 -22 l-264 -5 0 -30 0
-30 260 -3 c143 -1 269 0 281 2 37 10 74 55 74 93 0 43 -25 88 -57 102 -15 7
-114 11 -267 11 -208 0 -245 2 -250 15 -16 43 -7 45 271 47 241 3 267 5 277
21 8 12 8 22 0 35 -10 15 -36 17 -275 20 -247 2 -266 1 -296 -17z"/>
<path d="M4150 9750 c-12 -7 -16 -39 -18 -158 -3 -128 -1 -152 13 -166 21 -20
29 -20 50 0 13 13 16 35 14 106 -1 49 1 91 4 94 3 3 21 -5 39 -18 65 -47 130
-68 212 -68 85 0 189 34 239 78 9 8 20 12 24 8 4 -4 6 -46 4 -95 -2 -71 1 -91
14 -105 20 -20 29 -20 49 0 13 12 16 41 16 147 0 163 -3 177 -41 177 -15 0
-31 -5 -34 -10 -9 -15 -104 -84 -142 -103 -60 -32 -234 -19 -283 20 -37 29
-138 103 -141 103 -2 0 -11 -5 -19 -10z"/>
<path d="M5640 9749 c-74 -30 -100 -88 -100 -223 0 -105 0 -106 25 -112 14 -4
29 -3 33 1 4 3 10 54 13 111 5 91 9 107 29 129 23 25 24 25 207 25 182 0 184
0 208 -25 23 -22 25 -32 25 -115 0 -98 10 -130 39 -130 36 0 43 24 39 132 -5
116 -18 153 -70 190 -32 22 -42 23 -228 25 -115 1 -205 -2 -220 -8z"/>
<path d="M6710 9753 c-97 -37 -139 -164 -87 -263 40 -77 55 -80 342 -80 182 0
254 3 263 12 17 17 15 45 -4 52 -9 3 -122 6 -252 6 -235 0 -237 0 -267 24 -26
21 -30 31 -30 74 0 39 5 56 24 76 l24 26 250 2 c225 3 251 5 261 21 8 12 8 22
0 35 -10 15 -35 17 -260 19 -137 1 -256 -1 -264 -4z"/>
<path d="M8068 9731 l-33 -29 -3 -134 c-4 -144 3 -167 47 -153 17 5 21 16 23
68 l3 62 83 3 c111 4 239 -11 285 -33 21 -10 60 -38 87 -62 55 -50 83 -53 88
-11 3 21 -7 37 -40 70 -80 80 -178 108 -381 108 l-128 0 3 28 3 27 235 0 234
0 6 -25 c5 -20 12 -25 35 -25 25 0 31 4 33 27 4 36 -12 65 -51 88 -29 18 -52
20 -264 20 l-233 0 -32 -29z"/>
<path d="M9472 9748 c-8 -8 -12 -59 -12 -164 0 -160 6 -180 47 -172 16 3 19
17 23 108 5 114 8 117 60 80 58 -41 111 -55 215 -55 91 0 105 3 154 29 30 15
61 34 69 42 26 27 31 13 34 -87 2 -83 6 -104 20 -113 13 -8 22 -6 37 8 19 18
21 31 21 155 0 107 -3 141 -16 159 -8 12 -20 22 -25 22 -6 0 -36 -21 -67 -46
-92 -75 -138 -94 -232 -94 -98 0 -131 13 -226 86 -76 58 -83 61 -102 42z"/>
<path d="M7337 9743 c-4 -3 -7 -77 -7 -164 0 -150 1 -158 20 -164 34 -11 50
12 50 71 0 49 2 54 26 60 14 4 74 4 133 1 123 -6 175 -23 278 -92 50 -33 74
-43 91 -38 16 4 22 12 20 26 -3 22 -80 87 -136 114 -18 8 -31 20 -29 26 1 5
23 21 47 34 25 14 47 28 50 32 3 4 20 17 38 30 62 44 19 95 -45 54 -15 -9 -30
-20 -33 -23 -12 -13 -129 -70 -144 -70 -9 0 -16 -4 -16 -10 0 -6 -53 -10 -140
-10 l-140 0 0 49 c0 27 -3 56 -6 65 -6 16 -45 22 -57 9z"/>
<path d="M8832 9740 c-31 -13 -69 -58 -83 -99 -27 -80 21 -194 91 -218 48 -15
514 -13 530 3 7 7 9 21 5 33 -6 21 -11 21 -258 21 -182 1 -256 4 -268 13 -42
32 -51 102 -19 154 l20 33 256 2 c224 3 258 5 267 19 6 9 7 24 4 33 -6 14 -34
16 -264 15 -142 0 -268 -4 -281 -9z"/>
<path d="M6741 9606 c-9 -11 -9 -20 -2 -34 9 -16 26 -20 111 -26 55 -4 156 -4
225 0 105 6 125 10 130 24 3 9 3 25 -1 34 -5 14 -32 16 -229 16 -181 0 -225
-3 -234 -14z"/>
<path d="M8881 9606 c-7 -8 -10 -24 -6 -35 8 -25 96 -34 298 -29 124 2 149 6
164 21 14 13 15 21 7 35 -10 15 -35 17 -231 20 -184 2 -222 0 -232 -12z"/>
<path d="M5131 9523 c-22 -24 -3 -67 32 -71 16 -2 35 2 43 9 17 14 18 51 2 67
-17 17 -60 14 -77 -5z"/>
<path d="M4436 9471 c-25 -27 -6 -61 33 -61 24 0 30 5 35 32 10 48 -34 67 -68
29z"/>
<path d="M9761 9476 c-7 -8 -9 -25 -5 -40 5 -21 12 -26 39 -26 37 0 52 23 40
60 -8 24 -56 28 -74 6z"/>
<path d="M2640 9044 c0 -9 15 -41 34 -72 18 -32 52 -91 76 -132 24 -41 57
-100 75 -130 18 -30 42 -71 53 -90 10 -19 51 -91 91 -159 39 -68 71 -125 71
-127 0 -3 5 -10 10 -17 6 -7 42 -66 79 -132 37 -66 94 -165 126 -220 32 -55
101 -174 153 -265 120 -207 145 -251 217 -375 32 -55 100 -173 152 -262 51
-90 143 -249 205 -355 61 -106 128 -222 148 -258 130 -228 328 -570 359 -620
8 -14 22 -38 31 -55 14 -26 187 -327 285 -495 18 -30 65 -111 104 -180 40 -69
76 -132 82 -140 5 -8 40 -69 78 -135 37 -66 94 -165 126 -220 204 -352 245
-425 245 -434 0 -5 3 -11 8 -13 6 -3 129 -212 252 -428 20 -36 77 -135 127
-220 49 -85 176 -306 282 -490 276 -480 283 -491 295 -487 6 2 38 51 72 108
111 191 211 364 236 409 14 25 57 100 97 167 39 67 71 126 71 131 0 6 3 12 8
14 4 2 31 46 61 98 29 52 64 111 76 130 12 19 46 78 75 130 29 52 65 115 80
140 31 52 82 141 170 295 35 61 79 137 98 170 62 105 60 110 -174 505 -40 69
-217 374 -364 630 -24 41 -55 95 -70 120 -15 25 -83 142 -150 260 -154 268
-287 500 -300 520 -7 12 -139 241 -262 455 -16 28 -33 57 -38 65 -15 22 -149
257 -183 320 -16 30 -33 60 -38 65 -7 10 -43 71 -119 205 -20 36 -54 94 -75
130 -21 36 -55 94 -75 130 -20 36 -71 124 -112 195 -171 297 -229 396 -293
510 -37 66 -75 131 -84 145 -9 14 -66 112 -126 219 -61 106 -121 206 -135 221
-24 26 -30 27 -160 33 -74 4 -566 7 -1093 7 -863 -1 -957 -2 -957 -16z m1746
-759 c25 -17 54 -65 356 -590 23 -38 55 -95 73 -125 18 -30 75 -129 127 -220
53 -91 146 -253 208 -360 62 -107 130 -224 150 -260 20 -36 53 -92 72 -125 80
-137 407 -705 458 -795 20 -36 53 -93 73 -127 93 -158 109 -187 142 -245 19
-35 39 -70 44 -78 6 -8 38 -64 72 -125 35 -60 67 -111 71 -113 4 -2 8 -8 8
-12 0 -5 32 -65 71 -132 39 -68 83 -143 97 -168 24 -44 43 -76 136 -232 25
-43 46 -79 46 -82 0 -2 18 -35 40 -72 56 -97 54 -116 -24 -247 -35 -59 -81
-136 -101 -172 -20 -36 -39 -65 -43 -65 -4 0 -14 10 -22 23 -15 23 -207 356
-270 467 -20 36 -54 94 -75 130 -21 36 -55 94 -75 130 -20 36 -53 92 -72 125
-19 33 -66 114 -104 180 -37 66 -72 122 -76 123 -4 2 -8 8 -8 12 0 5 -32 65
-71 132 -39 68 -83 143 -96 168 -14 25 -40 70 -58 100 -18 30 -66 114 -107
185 -42 72 -101 175 -133 230 -32 55 -91 156 -130 225 -151 263 -310 537 -344
597 -20 35 -69 120 -110 190 -41 71 -91 157 -111 193 -20 36 -78 137 -130 225
-51 88 -135 234 -188 325 -52 91 -109 190 -127 220 -151 261 -205 357 -205
368 0 19 408 17 436 -3z"/>
</g>
</svg>
